<?xml version="1.0" encoding="UTF-8"?>
<svg version="1.1" xmlns="http://www.w3.org/2000/svg" width="102" height="107">
<path d="M0 0 C1.09570312 0.00902344 2.19140625 0.01804688 3.3203125 0.02734375 C4.16335938 0.03894531 5.00640625 0.05054688 5.875 0.0625 C5.875 0.7225 5.875 1.3825 5.875 2.0625 C6.7103125 2.43375 6.7103125 2.43375 7.5625 2.8125 C16.54734432 7.6691726 20.11635773 15.99136335 23.875 25.0625 C26.0113766 25.29354775 26.0113766 25.29354775 27.50390625 23.49609375 C28.46103516 22.50802734 28.46103516 22.50802734 29.4375 21.5 C32.48696997 18.78259572 34.35871806 17.48428989 38.5 17.6875 C42.82094718 18.58926289 45.36565356 20.57291768 47.97265625 24.08984375 C48.875 26.0625 48.875 26.0625 48.5 29.75 C46.92317693 32.96429318 45.71696105 34.9094992 42.875 37.0625 C41.885 37.0625 40.895 37.0625 39.875 37.0625 C39.38 33.5975 39.38 33.5975 38.875 30.0625 C37.225 29.7325 35.575 29.4025 33.875 29.0625 C32.24549588 33.18418689 31.61235399 35.76950357 32.875 40.0625 C36.56680857 41.29310286 40.03611956 41.65965918 43.875 41.0625 C46.25219693 39.18748069 46.25219693 39.18748069 47.875 37.0625 C48.535 37.0625 49.195 37.0625 49.875 37.0625 C50.12581682 34.85652076 50.34973851 32.64747421 50.5625 30.4375 C50.69011719 29.20773438 50.81773438 27.97796875 50.94921875 26.7109375 C50.86573944 22.60727015 50.08931367 20.48870156 47.875 17.0625 C44.77023677 14.43317615 40.90349868 12.70705979 36.875 12.0625 C38.02673355 9.59449953 38.92283565 8.01466435 40.875 6.0625 C45.52224021 4.95976504 48.4476899 4.44903139 52.6875 6.8125 C55.03199353 8.46743661 57.02955576 9.89138912 58.875 12.0625 C59.101875 11.505625 59.32875 10.94875 59.5625 10.375 C62.49022658 5.21662459 66.2335274 2.37545175 71.7734375 0.5703125 C77.95473866 -0.92331046 83.27451435 -0.24537355 88.9453125 2.55078125 C92.02373392 4.96241908 92.82349455 7.52848174 93.640625 11.27734375 C94.24982615 18.5166841 92.41053246 24.98653117 88.77734375 31.2109375 C86.71620884 35.44027926 86.78855081 38.85757712 87.8125 43.375 C88.00714844 44.25800781 88.20179687 45.14101563 88.40234375 46.05078125 C88.63630859 47.04658203 88.63630859 47.04658203 88.875 48.0625 C86.235 48.3925 83.595 48.7225 80.875 49.0625 C76.80192885 43.50831207 76.60301289 40.00336425 77.515625 33.22265625 C77.69351563 32.15337891 77.69351563 32.15337891 77.875 31.0625 C75.235 30.0725 72.595 29.0825 69.875 28.0625 C68.95029447 23.34650182 68.64576223 20.38984391 70.875 16.0625 C73.25 15.875 73.25 15.875 75.875 16.0625 C76.865 17.5475 76.865 17.5475 77.875 19.0625 C80.45880177 19.31280977 80.45880177 19.31280977 82.875 19.0625 C83.67453138 15.77553767 83.97158936 14.35226808 82.875 11.0625 C80.58952852 9.91976426 79.10620095 9.83122743 76.5625 9.75 C75.80324219 9.71261719 75.04398437 9.67523438 74.26171875 9.63671875 C70.82699278 10.24946037 69.32127758 11.59231743 66.875 14.0625 C65.66702331 16.4528727 64.70603182 18.62802421 63.8125 21.125 C63.56137451 21.78822266 63.31024902 22.45144531 63.05151367 23.13476562 C62.30977401 25.10513777 61.58932801 27.08204853 60.875 29.0625 C60.29878906 30.63837891 60.29878906 30.63837891 59.7109375 32.24609375 C59.04995436 34.0650588 58.39580813 35.88652953 57.75 37.7109375 C56.99409108 39.74244271 56.10228372 41.72240904 55.1875 43.6875 C53.23128226 48.71777419 52.16677435 53.61094968 53.6875 58.875 C54.079375 59.596875 54.47125 60.31875 54.875 61.0625 C55.5445869 62.39436922 56.21169396 63.72749164 56.875 65.0625 C58.64574917 65.08955729 60.41661711 65.10892195 62.1875 65.125 C63.66669922 65.14240234 63.66669922 65.14240234 65.17578125 65.16015625 C67.97463849 65.18579862 67.97463849 65.18579862 70.875 64.0625 C70.38 60.5975 70.38 60.5975 69.875 57.0625 C67.43782742 57.33284634 67.43782742 57.33284634 64.875 58.0625 C64.215 59.0525 63.555 60.0425 62.875 61.0625 C61.225 60.7325 59.575 60.4025 57.875 60.0625 C57.1875 56.75 57.1875 56.75 56.875 53.0625 C58.1875 51.125 58.1875 51.125 59.875 50.0625 C60.535 50.0625 61.195 50.0625 61.875 50.0625 C61.82279297 48.59876953 61.82279297 48.59876953 61.76953125 47.10546875 C61.74246094 45.83316406 61.71539062 44.56085937 61.6875 43.25 C61.63529297 41.35314453 61.63529297 41.35314453 61.58203125 39.41796875 C61.875 36.0625 61.875 36.0625 63.15625 34.15625 C65.87646495 32.42520413 68.71798828 32.36033129 71.875 32.0625 C71.771875 33.01125 71.66875 33.96 71.5625 34.9375 C71.55022709 41.01258982 75.20224087 46.09108122 78.09765625 51.234375 C80.48884974 55.65679737 81.80995879 58.92022664 80.875 64.0625 C78.09206991 68.52813201 74.59331805 71.70334097 69.875 74.0625 C70.431875 74.42601563 70.98875 74.78953125 71.5625 75.1640625 C75.53749616 77.78272551 79.49386832 80.43133403 83.375 83.1875 C84.0246875 83.64382812 84.674375 84.10015625 85.34375 84.5703125 C87.1564043 86.33672562 87.49372995 87.59483552 87.875 90.0625 C88.535 90.0625 89.195 90.0625 89.875 90.0625 C90.99123182 94.52742728 91.23809868 98.48745669 90.875 103.0625 C88.875 105.5625 88.875 105.5625 86.875 107.0625 C83.875 102.3125 83.875 102.3125 83.875 100.0625 C82.39 99.5675 82.39 99.5675 80.875 99.0625 C76.875 94.71964286 76.875 94.71964286 76.875 91.0625 C74.895 90.5675 74.895 90.5675 72.875 90.0625 C72.875 89.0725 72.875 88.0825 72.875 87.0625 C71.885 87.0625 70.895 87.0625 69.875 87.0625 C68.18626121 85.41820171 66.52194485 83.74865782 64.875 82.0625 C64.13121094 81.63582031 63.38742188 81.20914063 62.62109375 80.76953125 C53.99550447 75.40767846 46.2330826 67.29042989 43.29296875 57.5 C42.85957817 54.97256337 42.78816548 52.6218333 42.875 50.0625 C41.885 50.3925 40.895 50.7225 39.875 51.0625 C34.13025843 50.7310726 30.62602249 49.06824892 25.875 46.0625 C25.875 45.4025 25.875 44.7425 25.875 44.0625 C25.215 44.0625 24.555 44.0625 23.875 44.0625 C23.36839844 43.10537109 23.36839844 43.10537109 22.8515625 42.12890625 C22.18253906 40.88947266 22.18253906 40.88947266 21.5 39.625 C21.05914063 38.80128906 20.61828125 37.97757813 20.1640625 37.12890625 C19.04081441 34.92783422 19.04081441 34.92783422 16.875 34.0625 C16.51071061 32.73728978 16.18247293 31.40203323 15.875 30.0625 C15.22130874 28.67110897 14.53284969 27.29557863 13.8125 25.9375 C11.875 22.28314057 11.875 22.28314057 11.875 20.0625 C10.885 19.7325 9.895 19.4025 8.875 19.0625 C8.58625 18.32 8.2975 17.5775 8 16.8125 C6.28577006 12.62216014 3.47738571 9.97196216 -0.4375 7.75 C-0.994375 7.523125 -1.55125 7.29625 -2.125 7.0625 C-2.125 6.4025 -2.125 5.7425 -2.125 5.0625 C-5.095 4.5675 -5.095 4.5675 -8.125 4.0625 C-8.125 3.0725 -8.125 2.0825 -8.125 1.0625 C-5.36047967 -0.31976016 -3.0788637 -0.03275387 0 0 Z " fill="#FEFDFC" transform="translate(8.125,-0.0625)"/>
<path d="" fill="#FFFFFF" transform="translate(0,0)"/>
</svg>
